//-------------------------------------------------------------------
<region>
sample=/01/09/sample-001.wav
lokey=49
hikey=51
pitch_keycenter=49
hirand=0.25
seq_length=2 seq_position=1

<region>
sample=/01/09/sample-001.wav
lokey=49
hikey=51
pitch_keycenter=49
lorand=0.25
hirand=0.5
seq_length=2 seq_position=1

<region>
sample=/01/09/sample-002.wav
lokey=49
hikey=51
pitch_keycenter=49
lorand=0.5
hirand=0.75
seq_length=2 seq_position=1

<region>
sample=/01/09/sample-002.wav
lokey=49
hikey=51
pitch_keycenter=49
lorand=0.75
seq_length=2 seq_position=1


//-------------------------------------------------------------------
<region>
sample=/01/09/sample-003.wav
lokey=49
hikey=51
pitch_keycenter=49
hirand=0.25
seq_length=2 seq_position=2

<region>
sample=/01/09/sample-003.wav
lokey=49
hikey=51
pitch_keycenter=49
lorand=0.25
hirand=0.5
seq_length=2 seq_position=2

<region>
sample=/01/09/sample-004.wav
lokey=49
hikey=51
pitch_keycenter=49
lorand=0.5
hirand=0.75
seq_length=2 seq_position=2

<region>
sample=/01/09/sample-005.wav
lokey=49
hikey=51
pitch_keycenter=49
lorand=0.75
seq_length=2 seq_position=2